# xmcd
# 
# Track frame offsets:
#     150
#     22431
#     41751
#     58585
#     68430
#     93608
#     111087
#     129067
#     157480
#     171024
#     198778
# 
# Disc length: 2969
# 
# Revision: 2
# Processed by: cddbd v1.5.2PL0 Copyright (c) Steve Scherf et al.
# Submitted via: fre:ac v1.0.27
# 
DISCID=960b970b
DTITLE=Christian Scott aTunde Adjuah - Diaspora
DYEAR=2017
DGENRE=Jazz
TTITLE0=Diaspora
TTITLE1=IDK
TTITLE2=Our Lady of New New Orleans [Herreast Harrison]
TTITLE3=Bae
TTITLE4=Desire and the Burning Girl
TTITLE5=Uncrown Her
TTITLE6=Lawless
TTITLE7=Completely
TTITLE8=New Jack Bounce
TTITLE9=No Love
TTITLE10=The Walk
EXTD=
EXTT0=
EXTT1=
EXTT2=
EXTT3=
EXTT4=
EXTT5=
EXTT6=
EXTT7=
EXTT8=
EXTT9=
EXTT10=
PLAYORDER=
